<?xml version="1.0" encoding="UTF-8"?>
<svg width="120" height="32" version="1.1" viewBox="0 0 120 32" xmlns="http://www.w3.org/2000/svg">
	<g transform="matrix(1.6294 0 0 1.6294 0 -891.34)" fill-rule="evenodd">
		<g transform="matrix(.015522 0 0 .6772 0 546.35)">
			<path d="m0 29h106v1h-106z" opacity=".25"/>
			<path d="m0 27h106v1h-106z" opacity=".25"/>
			<path d="m0 25h106v1h-106z" opacity=".25"/>
			<path d="m0 23h106v1h-106z" opacity=".25"/>
			<path d="m0 21h106v1h-106z" opacity=".25"/>
			<path d="m0 19h106v1h-106z" opacity=".25"/>
			<path d="m0 17h106v1h-106z" opacity=".25"/>
			<path d="m0 15h106v1h-106z" opacity=".25"/>
			<path d="m0 13h106v1h-106z" opacity=".25"/>
			<path d="m0 11h106v1h-106z" opacity=".25"/>
			<path d="m0 9h106v1h-106z" opacity=".25"/>
			<path d="m0 7h106v1h-106z" opacity=".25"/>
			<path d="m0 5h106v1h-106z" opacity=".25"/>
			<path d="m0 3h106v1h-106z" opacity=".25"/>
			<path d="m0 1h106v1h-106z" opacity=".25"/>
		</g>
		<g transform="matrix(.015522 0 0 .6772 72 546.35)">
			<path d="m0 29h106v1h-106z" opacity=".25"/>
			<path d="m0 27h106v1h-106z" opacity=".25"/>
			<path d="m0 25h106v1h-106z" opacity=".25"/>
			<path d="m0 23h106v1h-106z" opacity=".25"/>
			<path d="m0 21h106v1h-106z" opacity=".25"/>
			<path d="m0 19h106v1h-106z" opacity=".25"/>
			<path d="m0 17h106v1h-106z" opacity=".25"/>
			<path d="m0 15h106v1h-106z" opacity=".25"/>
			<path d="m0 13h106v1h-106z" opacity=".25"/>
			<path d="m0 11h106v1h-106z" opacity=".25"/>
			<path d="m0 9h106v1h-106z" opacity=".25"/>
			<path d="m0 7h106v1h-106z" opacity=".25"/>
			<path d="m0 5h106v1h-106z" opacity=".25"/>
			<path d="m0 3h106v1h-106z" opacity=".25"/>
			<path d="m0 1h106v1h-106z" opacity=".25"/>
		</g>
		<g transform="matrix(.66372 0 0 .6772 1.6453 545.67)">
			<path d="m0 29h106v1h-106z" opacity=".25"/>
			<path d="m0 27h106v1h-106z" opacity=".25"/>
			<path d="m0 25h106v1h-106z" opacity=".25"/>
			<path d="m0 23h106v1h-106z" opacity=".25"/>
			<path d="m0 21h106v1h-106z" opacity=".25"/>
			<path d="m0 19h106v1h-106z" opacity=".25"/>
			<path d="m0 17h106v1h-106z" opacity=".25"/>
			<path d="m0 15h106v1h-106z" opacity=".25"/>
			<path d="m0 13h106v1h-106z" opacity=".25"/>
			<path d="m0 11h106v1h-106z" opacity=".25"/>
			<path d="m0 9h106v1h-106z" opacity=".25"/>
			<path d="m0 7h106v1h-106z" opacity=".25"/>
			<path d="m0 5h106v1h-106z" opacity=".25"/>
			<path d="m0 3h106v1h-106z" opacity=".25"/>
		</g>
	</g>
</svg>
