<svg width="16.506" height="24" version="1.1" viewBox="0 0 16.506 24" xml:space="preserve" xmlns="http://www.w3.org/2000/svg">
    <path class="logo"
          d="m10.756 1.1547e-4c-0.1197-0.0016051-0.23596 0.010504-0.3057 0.065342-0.2012 0.15813-0.18353 0.88532-0.21722 1.1312-0.12514 0.91285-0.25067 1.8271-0.39676 2.7368-0.039825 0.24782-0.010735 0.77898-0.19778 0.96254-0.1442 0.14156-0.49482 0.075573-0.67951 0.075573-0.6215 0-1.2683 0.052158-1.8872-0.00277-0.42534-0.037696-0.37509-0.85046-0.42864-1.1769-0.13887-0.84616-0.24929-1.6988-0.36763-2.5481-0.045111-0.32382-0.023206-0.82735-0.17547-1.1175-0.09088-0.17319-0.42464-0.10939-0.58569-0.10939h-1.7459c-0.075024 0.94263-0.36313 1.9011-0.53739 2.8312-0.31436 1.6778-0.59651 3.3622-0.85812 5.049-0.24046 1.5506-0.42911 3.1109-0.57822 4.6715-0.070687 0.7397 0.00838 1.5358-0.1094 2.2641-0.04714 0.29161-0.43074 0.34929-0.6537 0.46754-0.39698 0.2105-0.80811 0.50992-0.96503 0.9489-0.39212 1.0968 1.0744 1.257 1.2804 2.0762 0.041053 0.16327 0.090838 0.50188 0.039168 0.66062-0.088523 0.27203-0.38955 0.48348-0.27215 0.80217 0.099091 0.26897 0.41703 0.51354 0.62541 0.6996 0.55789 0.49815 1.1687 0.95043 1.7459 1.4276 0.85932 0.7104 1.8853 1.625 2.9728 1.9512 0.63334 0.18997 1.4191 0.12133 2.0762 0.12128 0.51599-4.7e-5 1.1653 0.02304 1.6515-0.16359 1.1405-0.43775 2.187-1.3644 3.1143-2.1369 0.6382-0.53165 1.6786-1.1089 2.0811-1.852 0.16015-0.29577-0.12841-0.551-0.23916-0.80218-0.07781-0.17643-0.04058-0.6291 0.04691-0.80199 0.30143-0.59573 1.1799-0.76589 1.3042-1.5102 0.11103-0.66505-0.51532-1.1433-1.0224-1.422-0.22069-0.12127-0.60676-0.17666-0.65361-0.46634-0.12018-0.74324-0.037245-1.5563-0.1094-2.3113-0.1568-1.6412-0.37781-3.2757-0.61822-4.9074-0.23702-1.6091-0.51921-3.2162-0.82724-4.8131-0.17596-0.91209-0.4547-1.8588-0.52836-2.784h-1.6515c-0.08362 0-0.20674-0.015284-0.32644-0.016871zm-2.4996 5.6227c0.057158 0.00105 0.11242 0.011005 0.15382 0.02645 0.14229 0.053086 0.10725 0.21799 0.21308 0.29731 0.084733 0.063515 0.2682 0.040625 0.3187 0.13456 0.04179 0.077771 0.028265 0.18476 0.026265 0.26957-0.0034 0.14289-0.00753 0.29128 0.00105 0.43381h-0.40496v2.7572c0 0.067998-0.020475 0.17433 0.022305 0.23142 0.048675 0.064969 0.15147 0.18759 0.22838 0.21594 0.089197 0.032885 0.23285 0.00582 0.32773 0.00582h0.61702c0.082978 0 0.20087 0.021385 0.27962-0.00571 0.05303-0.018255 0.0927-0.070985 0.13493-0.10553 0.09412-0.077004 0.3419-0.20208 0.45989-0.1035 0.05665 0.04733 0.02221 0.24129 0.02221 0.31114v0.91581c-0.16098 0.03121-0.35996 0.02581-0.49159-0.08875-0.05011-0.04359-0.08406-0.17141-0.14516-0.18773-0.10191-0.02725-0.24108-3e-3 -0.34662-3e-3 -0.26645 0-0.53319 0.0096-0.80024 0.0096 0.03671 0.18868 0 0.42337 0 0.61702v1.3111c0 1.3593 0.00425 2.719 0.00415 4.0781-2.65e-5 0.4374-0.1474 0.91231-0.33925 1.3015-0.04703 0.09545-0.17862 0.36837-0.32044 0.32865-0.1403-0.039407-0.23526-0.29638-0.28791-0.41554-0.19945-0.45146-0.30015-0.91455-0.30015-1.4075v-5.8134c-0.27031 0-0.54007-0.0096-0.80983-0.0096-0.10155 0-0.23868-0.02438-0.33639 3e-3 -0.060241 0.01691-0.093727 0.15081-0.14727 0.19326-0.13608 0.10792-0.32838 0.11368-0.49002 0.08322v-0.91573c0-0.06943-0.033085-0.2599 0.022305-0.30837 0.12332-0.10795 0.38028 0.030185 0.47896 0.11041 0.03713 0.030175 0.069782 0.078837 0.11566 0.095757 0.089193 0.032885 0.23295 0.00582 0.32782 0.00582h0.61702c0.082878 0 0.20093 0.021475 0.27953-0.0057 0.080521-0.027845 0.18781-0.15877 0.23796-0.2257 0.04277-0.057093 0.022395-0.16342 0.022395-0.23142v-2.7475h-0.40477c0-0.17046-0.00938-0.34122-0.00957-0.51095-1e-4 -0.065113-0.0043-0.15818 0.04258-0.20994 0.079109-0.087401 0.24412-0.04457 0.32957-0.13917 0.054094-0.059888 0.053286-0.15567 0.10479-0.21879 0.050687-0.062144 0.15127-0.08471 0.24653-0.082853zm1.4915 2.2511c0.75099 0.094364 1.356 0.60762 1.9007 1.0871 0.13199 0.11619 0.25631 0.24447 0.39805 0.34929 0.03119 0.02308 0.11919 0.10236 0.15428 0.048385 0.04752-0.073177-0.05898-0.26488-0.09382-0.33141-0.10437-0.1994-0.2177-0.39298-0.35943-0.56864-0.06214-0.076943-0.19702-0.16177-0.22902-0.25179 0.1674 0.025095 0.34238 0.17837 0.47924 0.27077 0.47345 0.31959 0.87293 0.72189 1.0431 1.2806 0.0779 0.25582 0.13988 0.51236 0.20469 0.77167 0.01561 0.06243 0.02614 0.22548 0.08746 0.26017 0.03159 0.0179 0.05208-0.02682 0.06166-0.04903 0.02916-0.06739 0.04956-0.13898 0.06304-0.21114 0.05451-0.29192 0.073-0.59199 0.01834-0.88531h0.0081c0.11704 0.20051 0.18406 0.4408 0.2328 0.66596 0.06436 0.29745 0.09592 0.59727 0.06636 0.90162-0.06668 0.68651-0.4524 1.3229-0.93268 1.8031-0.26178 0.26175-0.56055 0.50626-0.90973 0.64172 0.06368-0.15147 0.21749-0.35482 0.01621-0.48081-0.18462-0.11554-0.50314-0.02693-0.7066-0.01641-0.48214 0.02496-1.0284-0.04108-1.4133-0.36183-0.14098-0.11748-0.29992-0.29658-0.31676-0.48929 0.69216 0.25807 1.8017 0.34466 2.2148-0.42238 0.11241-0.20873 0.14064-0.45724 0.14064-0.69038 0-0.53153-0.1745-1.0768-0.43758-1.5351-0.29483-0.51363-0.76281-0.91119-1.1868-1.3151-0.11424-0.10884-0.23188-0.21409-0.34708-0.32183-0.051058-0.047745-0.12157-0.088646-0.15668-0.14995zm-3.0549 0.0038c0.022755-5.5e-4 0.04479 7e-4 0.065803 0.00435-0.15288 0.16535-0.33794 0.30999-0.50357 0.46293-0.57075 0.527-1.138 1.0613-1.418 1.8032-0.14502 0.3842-0.24096 0.82296-0.19981 1.2346 0.019874 0.1988 0.063774 0.40749 0.17612 0.57666 0.47046 0.70839 1.4823 0.57393 2.1726 0.34929-0.016515 0.18908-0.17288 0.36354-0.30865 0.48145-0.38348 0.33305-0.94378 0.39234-1.4295 0.36828-0.20092-0.0099-0.51677-0.09675-0.69849 0.01778-0.20052 0.12639-0.047839 0.32828 0.01621 0.48081-0.35171-0.13649-0.65744-0.38284-0.91793-0.64987-0.61316-0.62856-1.026-1.4529-0.91895-2.3474 0.031615-0.26421 0.089803-0.52264 0.1846-0.77167 0.026477-0.06955 0.055552-0.19882 0.11714-0.24358-0.054013 0.28996-0.033131 0.5801 0.015677 0.86909 0.015319 0.09079 0.034256 0.25362 0.13059 0.29234 0.071462-0.1842 0.10223-0.37732 0.15004-0.56854 0.089461-0.35783 0.19867-0.72824 0.40293-1.0397 0.1694-0.25829 0.42118-0.45415 0.66403-0.63886 0.12429-0.094538 0.25555-0.18034 0.39123-0.25796 0.06298-0.03603 0.1303-0.082793 0.20303-0.094096h9.27e-5c-0.044298 0.09421-0.16313 0.16818-0.22838 0.25179-0.14022 0.17967-0.25079 0.36926-0.35989 0.56855-0.040181 0.073396-0.071254 0.15461-0.092714 0.23557-0.00794 0.029435-0.020847 0.075013 0.00106 0.10165 0.037285 0.045445 0.13055-0.040245 0.15999-0.061381 0.14632-0.10509 0.2702-0.23969 0.40616-0.35703 0.21475-0.18534 0.41817-0.37964 0.64983-0.54495 0.2091-0.14922 0.44668-0.26766 0.68227-0.36819 0.13221-0.056416 0.32721-0.15138 0.48652-0.1552zm-5.048 7.4749c0.026612 1.2503 1.3371 1.3621 2.0719 1.9998 0.15765 0.13684 0.56645 0.74535 0.27234 0.92245-0.26519 0.15968-0.9532-0.30835-1.2589-0.34081-0.41784-0.044404-0.63891 0.31818-0.94374 0.53288-0.35659-0.81072-2.2768-1.5269-1.2249-2.5437 0.12651-0.12226 0.27208-0.21679 0.42275-0.30616 0.20781-0.12325 0.4219-0.2234 0.66061-0.2645zm13.259 0c0.24853 0.13236 0.51434 0.21906 0.75499 0.36883 0.13109 0.08159 0.25568 0.17056 0.35123 0.29372 0.81133 1.046-1.1794 1.6105-1.3422 2.4518-0.33559-0.27052-0.55119-0.63014-1.0381-0.55988-0.27562 0.03977-0.96178 0.49158-1.1984 0.31482-0.2725-0.20371 0.14413-0.78097 0.30376-0.91904 0.51764-0.44752 1.246-0.48377 1.7358-1.0083 0.28289-0.30299 0.28528-0.59342 0.43288-0.94189zm-1.1927 2.7871c0.11805-6.9e-5 0.23299 0.02525 0.3433 0.09133l-1.3684 0.84936-0.28312-0.66062c0.42597 0.04501 0.88664-0.27983 1.3082-0.28008zm-11.312 0.09133 1.6044 0.23594-0.23593 0.66062c-0.44469-0.10202-1.0911-0.53732-1.3684-0.89655zm11.844 0.09437c0.23372 0.27014 0.90322 0.98616 0.843 1.3684-0.04185 0.26585-0.41582 0.49782-0.60707 0.65684-0.67269 0.55931-1.4145 0.98996-2.2178 1.3321-2.5576 1.0894-5.6678 1.0138-8.2105-0.07437-0.75385-0.32266-1.5123-0.75919-2.1234-1.3092-0.16421-0.14774-0.53802-0.41482-0.55435-0.6526-0.025196-0.36725 0.54605-0.93713 0.7431-1.2269 0.37216 0.14316 0.69077 0.44173 1.0381 0.64052 0.56681 0.32441 1.1726 0.58836 1.7931 0.79066 2.2574 0.73592 4.7244 0.70651 6.9365-0.17833 0.85932-0.34376 1.5924-0.84204 2.3593-1.3472zm-11.235 0.77656-0.5033 1.4696 0.2293 0.14598 1.1188-1.0776-0.21861-0.13926-0.7243 0.68753 0.31667-0.94705zm10.13 0.23971-0.86982 0.50661 0.75987 1.3048 0.86991-0.50661-0.12663-0.2175-0.65241 0.37998-0.19004-0.32616 0.32625-0.19004-0.12663-0.2175-0.32625 0.19004-0.18995-0.32625 0.65242-0.37989zm-8.5371 0.66421-0.91655 1.2542 0.23934 0.09954 0.15474-0.20829 0.32994 0.13714-0.038431 0.25658 0.23934 0.09944 0.24257-1.5343zm7.205 0.04138-0.23363 0.09354 0.56117 1.4019 0.23363-0.09354zm-0.93848 0.32247-0.73582 0.16893 0.33796 1.4717 0.24524-0.05631-0.14082-0.61324 0.20847-0.04783 0.4009 0.55343 0.26727-0.06138-0.39583-0.55463 0.1987-0.30386-0.08451-0.36791zm-5.2619 0.0053-0.29694 1.4805 0.98696 0.19796 0.04949-0.24672-0.74024-0.14847 0.24745-1.2338zm-1.0869 0.18257-0.071794 0.47436-0.21381-0.08884zm5.1078 0.04212-0.27621 0.01816-0.17262 0.44265-0.22921-0.4162-0.27621 0.01816 0.40118 0.73029 0.049585 0.75333 0.25114-0.01659-0.049585-0.75333zm-2.5411 0.02194-0.069123 1.5083 0.25133 0.01161 0.023315-0.5079 0.11207-0.13594 0.33224 0.66522 0.28662 0.01318-0.44284-0.89194 0.51205-0.61647-0.31427-0.01437-0.46671 0.56302 0.026725-0.5832zm3.7378 0.0164 0.12368 0.07741 0.03824 0.16681-0.07742 0.12368-0.39003 0.08958-0.08451-0.36791z"/>
</svg>
